<!-- Color from shared/design-tokens.ts: colors.primary (#d97706) -->
<svg xmlns="http://www.w3.org/2000/svg" viewBox="0 0 160 32">
  <!-- Egg shape icon -->
  <ellipse cx="16" cy="17" rx="11" ry="13" fill="#d97706"/>

  <!-- Monte Carlo paths emanating from egg -->
  <path d="M16 8 Q20 4, 26 2 L28 8 Q24 10, 20 12 Q18 10, 16 8 Z"
        fill="rgba(255,255,255,0.2)"/>
  <path d="M16 8 Q19 5, 24 4 L26 8 Q22 9, 19 11 Q17.5 9.5, 16 8 Z"
        fill="rgba(255,255,255,0.35)"/>
  <path d="M16 8 Q18 6, 22 5 L25 6"
        stroke="white"
        stroke-width="1.5"
        stroke-linecap="round"
        fill="none"/>

  <!-- Nest lines at base -->
  <path d="M8 24 Q12 26, 16 26 Q20 26, 24 24" stroke="rgba(255,255,255,0.4)" stroke-width="1" fill="none"/>
  <path d="M10 22 Q13 23, 16 23 Q19 23, 22 22" stroke="rgba(255,255,255,0.3)" stroke-width="1" fill="none"/>

  <!-- Text: EggNest -->
  <text x="38" y="22" font-family="system-ui, -apple-system, sans-serif" font-size="18" font-weight="700" fill="#d97706">
    EggNest
  </text>
</svg>
